<svg width="116" height="24" viewBox="0 0 116 24" fill="none" xmlns="http://www.w3.org/2000/svg">
<path d="M12.9173 21.8947H2.04511V2.06015H0V23.7594H12.9173V21.8947Z" fill="#1C1C1E"/>
<path d="M20.4511 22.1955C18.1955 22.1955 16.6617 21.0075 16.6617 19.2632C16.6617 17.4436 18.1053 16.391 20.8271 16.2105L25.5639 15.8797V17.6692C25.5639 20.2256 23.3534 22.1955 20.4511 22.1955ZM20.0602 23.9398C22.5414 23.9398 24.7368 22.6316 25.609 20.6617H25.6541V23.7594H27.5489V12.7218C27.5489 9.45865 25.188 7.38346 21.4737 7.38346C18.0752 7.38346 15.5188 9.3985 15.3534 12.2406H17.2632C17.6241 10.3158 19.203 9.1579 21.4586 9.1579C24.0752 9.1579 25.5639 10.5263 25.5639 12.8872V14.2707L20.5865 14.6015C16.7068 14.8722 14.6316 16.4812 14.6316 19.2481C14.6316 22.0451 16.8271 23.9398 20.0602 23.9398Z" fill="#1C1C1E"/>
<path d="M43.6842 7.56391H41.609L36.6165 21.6391H36.5714L31.594 7.56391H29.5038L35.5489 23.7594H37.6541L43.6842 7.56391Z" fill="#1C1C1E"/>
<path d="M51.9549 23.9398C56.406 23.9398 59.3233 20.7068 59.3233 15.6541C59.3233 10.6015 56.406 7.38346 51.9549 7.38346C47.5038 7.38346 44.6015 10.6015 44.6015 15.6541C44.6015 20.7068 47.5038 23.9398 51.9549 23.9398ZM51.9549 22.1504C48.6767 22.1504 46.6316 19.6992 46.6316 15.6541C46.6316 11.6241 48.6767 9.1579 51.9549 9.1579C55.2481 9.1579 57.2932 11.609 57.2932 15.6541C57.2932 19.6992 55.2481 22.1504 51.9549 22.1504Z" fill="#1C1C1E"/>
<path d="M61.7744 11.9248C61.7744 14.0602 63.1579 15.3835 65.9549 16.0902L68.6917 16.782C70.8872 17.3233 71.7143 18.0752 71.7143 19.4436C71.7143 21.1579 70.0301 22.2707 67.609 22.2707C65.1579 22.2707 63.5489 21.0526 63.3083 19.203H61.2932C61.5188 21.9549 64.015 23.9398 67.4887 23.9398C71.1278 23.9398 73.7293 22.0451 73.7293 19.3083C73.7293 17.0075 72.4962 15.8346 69.2481 15.0226L66.7669 14.4211C64.7068 13.9098 63.7444 13.1429 63.7444 11.8195C63.7444 10.1805 65.3684 9.06767 67.5338 9.06767C69.8195 9.06767 71.3083 10.2857 71.5038 12.1203H73.4135C73.2481 9.33835 70.8722 7.38346 67.594 7.38346C64.2556 7.38346 61.7744 9.24812 61.7744 11.9248Z" fill="#1C1C1E"/>
<path d="M87.3985 24C91.609 24 93.9699 20.8722 93.9699 15.3083C93.9699 9.72932 91.594 6.61654 87.3233 6.61654C84.9023 6.61654 83.0977 7.83459 82.2857 9.89474H82.1654V0.932331H76V23.7594H82.1654V20.8421H82.2857C83.0677 22.812 84.9173 24 87.3985 24ZM84.9023 11.3835C86.5714 11.3835 87.6541 12.9173 87.6541 15.3083C87.6541 17.7143 86.5865 19.2331 84.9023 19.2331C83.203 19.2331 82.1504 17.7444 82.1353 15.3233C82.1504 12.9173 83.218 11.3835 84.9023 11.3835Z" fill="#1C1C1E"/>
<path d="M95.9248 23.7594H102.09V6.85714H95.9248V23.7594ZM99.0075 5.86466C100.707 5.86466 102.09 4.63158 102.09 2.93233C102.09 1.23308 100.707 0 99.0075 0C97.3083 0 95.9248 1.23308 95.9248 2.93233C95.9248 4.63158 97.3083 5.86466 99.0075 5.86466Z" fill="#1C1C1E"/>
<path d="M105.985 3.14286V6.85714H103.744V11.3383H105.985V19.0526C105.985 22.391 107.85 23.7594 112.571 23.7594C113.744 23.7594 114.541 23.6541 115.128 23.5338V19.2481C114.767 19.3083 114.526 19.3233 114.06 19.3233C112.767 19.3233 112.15 18.7669 112.15 17.6992V11.3383H115.128V6.85714H112.15V3.14286H105.985Z" fill="#1C1C1E"/>
</svg>
